<svg xmlns="http://www.w3.org/2000/svg" fill="#333" stroke="none" viewBox="0 0 100 100"><path d="M15.67,88C9.06,83.36,7.89,75.34,7.79,74.55a20.41,20.41,0,0,1,4.15-15L45.28,17.4a21,21,0,0,1,29.06-3.64c5.37,4-1.71,16.45-4.63,22C55.29,62.89,25.46,79.19,21.84,75.21,17.79,70.75,45.57,39.54,46,39.85s-20.72,27.39-17.84,30c2,1.8,14.59-8.94,22.73-17.37,5.8-6,24-24.83,19-33.39C67.68,15.29,61.77,15,60.67,15c-9.45-.47-17.54,9.81-33.33,30.47-8.41,11-12.92,18.17-12.57,26.78.09,2.22.32,7.28,3.9,10.31s8.73,2.55,10.5,2.37c21.69-2,52.21-58.73,58.55-55.87.44.19,1,.82,1.07,2.59L44.73,84.35C35.57,92.26,23.34,93.38,15.67,88Z"/></svg>