<svg xmlns="http://www.w3.org/2000/svg" viewBox="0 0 51.75 51.75"><polygon class="cls-1" points="10.19 7.1 10.19 11.76 12.48 11.76 12.48 9.43 42.3 9.43 42.3 39.66 40 39.66 40 41.99 44.59 41.99 44.59 7.1 10.19 7.1"/><path class="cls-2" d="M4,19.12V54H38.4V19.12Zm12.86,29L8.65,37.37,10.47,36,17,44.37Q24.24,35.66,31.5,27l1.77,1.59Z" transform="translate(-2.5 -3.75)"/><polygon class="cls-1" points="17.1 0.25 17.1 4.9 19.39 4.9 19.39 2.58 49.21 2.58 49.21 32.81 46.91 32.81 46.91 35.13 51.5 35.13 51.5 0.25 17.1 0.25"/></svg>