<svg xmlns="http://www.w3.org/2000/svg" viewBox="0 0 51.75 51.75"><polygon points="10.19 7.1 10.19 11.76 12.48 11.76 12.48 9.43 42.3 9.43 42.3 39.66 40 39.66 40 41.99 44.59 41.99 44.59 7.1 10.19 7.1"/><rect class="cls-2" x="1.5" y="15.37" width="34.4" height="34.88"/><path class="cls-3" d="M31.5,27Q24.24,35.65,17,44.37L10.47,36,8.65,37.37l8.21,10.71L33.27,28.54Z" transform="translate(-2.5 -3.75)"/><polygon class="cls-1" points="17.1 0.25 17.1 4.9 19.39 4.9 19.39 2.58 49.21 2.58 49.21 32.81 46.91 32.81 46.91 35.13 51.5 35.13 51.5 0.25 17.1 0.25"/></svg>